<svg width="24" height="18" viewBox="0 0 24 18" fill="none" xmlns="http://www.w3.org/2000/svg">
<g clip-path="url(#clip0_1_3841)">
<rect width="24" height="18" rx="4" fill="#1A47B8"/>
<path d="M21.7143 0H2.28571C1.02335 0 0 1.07452 0 2.4V15.6C0 16.9255 1.02335 18 2.28571 18H21.7143C22.9767 18 24 16.9255 24 15.6V2.4C24 1.07452 22.9767 0 21.7143 0Z" fill="#1A47B8"/>
<path opacity="0.5" fill-rule="evenodd" clip-rule="evenodd" d="M4.57143 13.8L5.71429 13.2L6.28571 12L6.85714 13.2L8 13.8L6.85714 14.4L6.28571 15.6L5.71429 14.4L4.57143 13.8ZM16 3.6V4.8H17.1429V3.6H16ZM19.4286 4.8V6H20.5714V4.8H19.4286ZM14.8571 7.2V8.4H16V7.2H14.8571ZM18.2857 8.4V9.6H19.4286V8.4H18.2857ZM17.1429 12V13.2H18.2857V12H17.1429Z" fill="white"/>
<path d="M10.2857 1.2H2.28571C1.65453 1.2 1.14286 1.73726 1.14286 2.4V8.4C1.14286 9.06274 1.65453 9.6 2.28571 9.6H10.2857C10.9169 9.6 11.4286 9.06274 11.4286 8.4V2.4C11.4286 1.73726 10.9169 1.2 10.2857 1.2Z" fill="white"/>
<path fill-rule="evenodd" clip-rule="evenodd" d="M5.71429 6H2.28571V4.8H5.71429V2.4H6.85714V4.8H10.2857V6H6.85714V8.4H5.71429V6ZM8.57143 7.2V8.4H10.2857V7.2H8.57143ZM8.57143 2.4V3.6H10.2857V2.4H8.57143ZM2.28571 7.2V8.4H4V7.2H2.28571ZM2.28571 2.4V3.6H4V2.4H2.28571Z" fill="#F93939"/>
</g>
<defs>
<clipPath id="clip0_1_3841">
<rect width="24" height="18" rx="4" fill="white"/>
</clipPath>
</defs>
</svg>
