<svg width="24" height="18" viewBox="0 0 24 18" fill="none" xmlns="http://www.w3.org/2000/svg">
<g clip-path="url(#clip0_6_9)">
<rect width="24" height="18" rx="4" fill="white"/>
<path d="M11.7647 14H11.2353L11.3676 12.0541C11.3602 11.9516 11.3066 11.9246 11.1029 11.9324L8.98529 12.1757C8.98529 12.1757 9.38235 11.6892 9.38235 11.4459C9.38235 11.2027 7 9.62162 7 9.62162C7 9.62162 7.52941 9.5 7.66176 9.37838C7.79412 9.25676 7.13235 7.91892 7.13235 7.91892C7.13235 7.91892 8.47736 8.40541 8.58824 8.28378C8.69911 8.16216 8.85294 7.67568 8.85294 7.67568C8.85294 7.67568 9.91176 8.77027 10.1765 8.77027C10.4412 8.77027 9.64706 6.09459 9.64706 6.09459C9.64706 6.09459 10.3088 6.58108 10.5735 6.58108C10.8382 6.58108 11.5 5 11.5 5C11.5 5 12.1618 6.58108 12.2941 6.58108C12.4265 6.58108 13.3529 6.09459 13.3529 6.09459C13.3529 6.09459 12.6912 8.64865 12.8235 8.77027C12.9559 8.89189 14.1471 7.67568 14.1471 7.67568C14.1471 7.67568 14.2794 8.16216 14.4118 8.28378C14.5441 8.40541 15.8676 7.91892 15.8676 7.91892C15.8676 7.91892 15.2059 9.25676 15.3382 9.37838C15.4706 9.5 16 9.62162 16 9.62162C16 9.62162 13.6176 11.2027 13.6176 11.4459C13.6176 11.6892 13.8824 12.1757 13.8824 12.1757L11.8971 11.9324C11.7375 11.8904 11.6822 11.9223 11.6324 12.0541L11.7647 14Z" fill="#F93939"/>
<rect x="19" width="5" height="18" fill="#F93939"/>
<rect x="-1" width="6" height="18" fill="#F93939"/>
</g>
<defs>
<clipPath id="clip0_6_9">
<rect width="24" height="18" rx="4" fill="white"/>
</clipPath>
</defs>
</svg>
