<svg width="24" height="18" viewBox="0 0 24 18" fill="none" xmlns="http://www.w3.org/2000/svg">
<g clip-path="url(#clip0_1_3841)">
<rect width="24" height="18" rx="4" fill="#F93939"/>
<path d="M21.7143 0H2.28571C1.02335 0 0 1.07452 0 2.4V15.6C0 16.9255 1.02335 18 2.28571 18H21.7143C22.9767 18 24 16.9255 24 15.6V2.4C24 1.07452 22.9767 0 21.7143 0Z" fill="#F93939"/>
<path fill-rule="evenodd" clip-rule="evenodd" d="M6.28356 8.676L4.60356 9.6036L4.92356 7.6392L3.56585 6.2472L5.44356 5.9628L6.28356 4.1748L7.12242 5.9628L9.00013 6.2472L7.64013 7.6392L7.96242 9.6024L6.28356 8.676ZM10.2858 3.6H11.4287V4.8H10.2858V3.6ZM11.4287 6H12.5716V7.2H11.4287V6ZM11.4287 8.4H12.5716V9.6H11.4287V8.4ZM10.2858 10.8H11.4287V12H10.2858V10.8Z" fill="#FFDA2C"/>
</g>
<defs>
<clipPath id="clip0_1_3841">
<rect width="24" height="18" rx="4" fill="white"/>
</clipPath>
</defs>
</svg>
