<svg width="24" height="18" viewBox="0 0 24 18" fill="none" xmlns="http://www.w3.org/2000/svg">
<rect width="24" height="18" rx="4" fill="#F93939"/>
<path fill-rule="evenodd" clip-rule="evenodd" d="M11.6057 9.0168C8.50629 7.6392 9.88 3.396 12.8457 3.6072C12.2446 3.9312 12.1577 4.536 12.5006 5.0952C12.8846 5.724 12.4663 6.7332 11.9474 6.9792C11.0949 7.3812 10.9246 8.4552 11.6046 9.0168H11.6057ZM11.8651 8.8704C12.1543 5.3508 16.4251 5.4108 17.1451 8.436C16.6674 7.938 16.0937 8.0376 15.6914 8.5536C15.2423 9.1296 14.1989 9.0216 13.8171 8.5812C13.1886 7.8564 12.16 8.0172 11.8651 8.8716V8.8704ZM11.9703 9.222C15.2617 8.484 16.4549 12.7884 13.9097 14.3988C14.2251 13.7712 13.9669 13.2228 13.3794 12.9708C12.7234 12.6876 12.5154 11.6088 12.8057 11.0964C13.2834 10.2528 12.8354 9.2688 11.9714 9.2208L11.9703 9.222ZM7.71429 13.176C8.37714 13.296 8.79429 12.8676 8.84114 12.204C8.89486 11.46 9.80686 10.92 10.3611 11.052C11.2731 11.268 12.0263 10.5168 11.8011 9.6384C13.488 12.6984 9.95771 15.2184 7.71314 13.1748L7.71429 13.176ZM7.032 6.6C7.16343 7.2936 7.69257 7.548 8.30057 7.356C8.98057 7.1424 9.78857 7.8432 9.86971 8.436C10.0046 9.4056 10.9417 9.8736 11.6411 9.3408C9.52686 12.0888 6.01829 9.5328 7.032 6.5988V6.6Z" fill="white"/>
</svg>
