<svg width="24" height="18" viewBox="0 0 24 18" fill="none" xmlns="http://www.w3.org/2000/svg">
<rect width="24" height="18" rx="4" fill="white"/>
<path fill-rule="evenodd" clip-rule="evenodd" d="M16 9C16 11.3196 14.2091 13.2 12 13.2C9.79086 13.2 8 11.3196 8 9C8 7.656 10.6857 7.092 12.9463 7.3044C13.1863 7.2372 13.4446 7.2 13.7143 7.2C14.9771 7.2 16 8.0064 16 9Z" fill="#232C80"/>
<path fill-rule="evenodd" clip-rule="evenodd" d="M11.4286 8.4C11.4286 8.4 12.4514 7.2 13.7143 7.2C14.9771 7.2 16 8.0064 16 9C16 6.6804 14.2091 4.8 12 4.8C10.4034 4.8 9.02514 5.7816 8.384 7.2024C8 8.4 8 8.7504 8 9C8.57143 9.6 9.20686 9.6 9.71429 9.6C10.2217 9.6 10.6777 9.3684 10.992 9L11.4286 8.4Z" fill="#F93939"/>
<path fill-rule="evenodd" clip-rule="evenodd" d="M17.1429 6H19.4286L17.1429 3.6H16L17.1429 6ZM6.85714 6H4.57143L6.85714 3.6H8L6.85714 6ZM17.1429 12H19.4286L17.1429 14.4H16L17.1429 12ZM6.85714 12H4.57143L6.85714 14.4H8L6.85714 12Z" fill="#151515"/>
</svg>
