<svg width="24" height="18" viewBox="0 0 24 18" fill="none" xmlns="http://www.w3.org/2000/svg">
<rect width="24" height="18" rx="4" fill="#249F58"/>
<path fill-rule="evenodd" clip-rule="evenodd" d="M18.2858 12V10.8H5.71441L8.00012 12H14.8573C14.8573 12.6624 15.6253 13.2 16.5715 13.2C17.5178 13.2 18.2858 12.6624 18.2858 12ZM9.97726 4.68721C9.96355 4.68721 9.94298 4.69441 9.91669 4.71121C9.85498 4.75441 9.73383 4.88761 9.72926 5.04121C9.72583 5.12881 9.70983 5.12881 9.76355 5.18521C9.80241 5.24281 9.84355 5.23801 9.92126 5.19361C9.96698 5.15761 9.98183 5.13721 9.99783 5.07841C10.0161 4.98241 9.8984 5.12641 9.88355 5.01601C9.85726 4.91521 9.93269 4.87201 10.0035 4.77601C10.0058 4.72801 10.0058 4.69201 9.97726 4.68961V4.68721ZM11.1235 4.69321C11.1007 4.69801 11.0744 4.72921 11.0367 4.79881C11.0104 4.87321 10.895 4.98601 10.9795 5.21881C11.0458 5.36641 11.0744 5.60521 11.0435 5.87281C10.9955 5.94841 10.9864 5.97481 10.9235 6.05041C10.8367 6.15001 10.7407 6.12481 10.6698 6.08641C10.6013 6.03841 10.5487 6.01441 10.5178 5.86321C10.5235 5.62321 10.5373 5.22481 10.495 5.14081C10.4333 5.01121 10.3304 5.05681 10.287 5.09641C10.0778 5.30041 9.97383 5.64001 9.90983 5.91241C9.85269 6.10921 9.78983 6.05161 9.7464 5.97241C9.64012 5.86681 9.63212 5.04841 9.50412 5.18401C9.29841 5.80081 9.62183 6.47641 9.84698 6.41041C10.007 6.48241 10.1098 6.15841 10.1761 5.80441C10.2218 5.70481 10.2561 5.69281 10.279 5.74441C10.2733 6.21481 10.3133 6.32041 10.4275 6.46201C10.6835 6.67081 10.8961 6.48841 10.9133 6.47161L11.1133 6.26281C11.159 6.21481 11.2161 6.21001 11.279 6.25321C11.3407 6.31321 11.3327 6.41281 11.4618 6.48121C11.5738 6.52921 11.8081 6.49321 11.8618 6.39361C11.9361 6.26161 11.9533 6.21601 11.9875 6.16561C12.0401 6.09361 12.1304 6.12601 12.1304 6.14881C12.1224 6.19081 12.0698 6.23281 12.1053 6.30481C12.1681 6.35281 12.183 6.32161 12.2195 6.31081C12.3498 6.24601 12.4481 5.94841 12.4481 5.94841C12.4538 5.83801 12.3944 5.84641 12.3567 5.86921C12.3053 5.90161 12.303 5.91241 12.2538 5.94481C12.1887 5.95441 12.0653 5.99881 12.0047 5.89921C11.9418 5.77921 11.9418 5.61361 11.8938 5.49121C11.8938 5.48401 11.8104 5.30281 11.887 5.29201C11.9247 5.29921 12.0093 5.32201 12.0218 5.24881C12.063 5.17681 11.9338 4.97281 11.8458 4.87201C11.7704 4.78441 11.6653 4.77361 11.5635 4.86241C11.4915 4.93201 11.503 5.00881 11.4881 5.08201C11.471 5.16601 11.4744 5.27041 11.5567 5.38201C11.6275 5.52841 11.7567 5.71801 11.7133 5.98441C11.7133 5.98441 11.639 6.11161 11.5075 6.09481C11.4504 6.08281 11.3613 6.05881 11.3133 5.68681C11.279 5.40721 11.3224 5.01481 11.2104 4.83121C11.1841 4.76281 11.1624 4.69561 11.1258 4.69921L11.1235 4.69321ZM10.7601 4.72441C10.7258 4.72801 10.6881 4.77001 10.6573 4.85041C10.631 4.91281 10.5978 5.23441 10.6035 5.23441C10.5807 5.33041 10.6984 5.37121 10.7521 5.24881C10.8321 5.02081 10.8321 4.92481 10.8367 4.83121C10.8253 4.75921 10.7944 4.72321 10.7601 4.72561V4.72441ZM12.1007 4.74841C12.0664 4.75321 12.0378 4.77481 12.0275 4.83001C12.0127 4.95721 12.0207 5.02801 12.0413 5.13481C12.0561 5.20681 12.1555 5.32441 12.2035 5.39401C12.4355 5.72161 12.6607 6.05041 12.8755 6.39001C12.9098 6.64441 12.9327 6.89161 12.9498 7.13881C12.9864 7.67881 12.9955 8.35081 12.9647 8.92081C13.0607 8.92441 13.2161 8.75641 13.2698 8.51281C13.3041 8.17201 13.2584 7.48081 13.2538 7.27921L13.2424 6.99361C13.4938 7.42561 13.7361 7.88161 13.9738 8.38081C14.0618 8.33761 14.0424 7.82281 13.9921 7.75081C13.8001 7.31881 13.535 6.89161 13.4515 6.72721C13.4207 6.66721 13.3167 6.50281 13.1944 6.31201C13.1715 6.03841 13.1464 5.80801 13.1304 5.73841C13.0904 5.45041 13.2424 5.77081 13.2218 5.60401C13.1715 5.31601 13.0207 5.12161 12.8424 4.85761C12.7853 4.77361 12.7853 4.75441 12.6973 4.87921C12.6458 5.00521 12.6458 5.11081 12.663 5.20921C12.6378 5.17321 12.6093 5.13241 12.5681 5.07961L12.2767 4.82041C12.2367 4.79041 12.159 4.74481 12.1007 4.74841V4.74841ZM16.0733 4.79281C16.0561 4.79041 16.039 4.79881 16.0161 4.83121C15.9761 4.86721 15.9338 4.93561 15.9361 5.02321C15.9441 5.17321 15.9704 5.32801 15.9795 5.47921L15.991 5.53921C15.975 5.52001 15.9613 5.50321 15.9533 5.49601C15.671 5.18401 16.0824 5.44321 15.8984 5.20441C15.7441 5.02441 15.6984 4.96921 15.567 4.86121C15.4984 4.81801 15.4595 4.73161 15.4378 4.87801C15.4287 5.00641 15.4195 5.15641 15.4264 5.26441C15.4264 5.32441 15.487 5.43841 15.5384 5.50441C15.7258 5.74801 15.9178 6.00601 16.1098 6.27481C16.151 6.82321 16.1613 7.32601 16.2013 7.87561C16.1967 8.11081 16.1281 8.42281 16.0641 8.45161C16.0641 8.45161 15.9635 8.51161 15.8973 8.44561C15.8481 8.42521 15.655 8.10601 15.655 8.10601C15.5555 8.01001 15.4893 8.03761 15.4195 8.10601C15.2253 8.30281 15.1361 8.67241 15.0047 8.92681C14.9704 8.98321 14.8755 9.03241 14.7693 8.92201C14.4984 8.53321 14.655 7.98001 14.623 8.12281C14.383 8.40841 14.4881 8.88121 14.543 8.98321C14.623 9.15121 14.687 9.25921 14.8401 9.33961C14.983 9.44761 15.0915 9.38161 15.1533 9.30361C15.295 9.15001 15.2973 8.75521 15.3635 8.67721C15.4093 8.53321 15.527 8.55721 15.5841 8.62201C15.6413 8.70601 15.7053 8.76001 15.7864 8.80561C15.919 8.92801 16.0767 8.94961 16.2321 8.83801C16.3384 8.77561 16.4081 8.69401 16.4698 8.53321C16.5384 8.34601 16.5041 7.36201 16.4893 6.81481L16.7864 7.26601C16.8275 7.74601 16.847 8.22001 16.8321 8.67361C16.823 8.76361 17.1327 8.40481 17.1293 8.23441C17.1293 8.08681 17.1315 7.95121 17.1293 7.82641C17.2813 8.07841 17.4264 8.33401 17.5635 8.59441C17.6493 8.54641 17.6207 8.03881 17.567 7.97041C17.423 7.71601 17.2378 7.44241 17.095 7.22881C17.0664 6.96121 17.0287 6.64561 17.0104 6.54841C16.9841 6.39721 16.9567 6.17041 16.9155 5.99161C16.9041 5.92321 16.8698 5.70001 16.8813 5.67961C16.8973 5.62801 16.9613 5.67961 16.9921 5.62201C17.0378 5.56801 16.8298 4.99801 16.7235 4.83721C16.6858 4.76521 16.6161 4.78921 16.5315 4.90921C16.4515 4.98601 16.4813 5.16361 16.511 5.33281C16.5887 5.76481 16.6595 6.20161 16.7144 6.64081C16.6115 6.47881 16.4858 6.28441 16.3624 6.09841L16.3464 6.01441C16.3464 6.00481 16.3304 5.66041 16.3155 5.57881C16.3121 5.54521 16.3041 5.53561 16.3384 5.54041C16.3727 5.57161 16.3773 5.57281 16.399 5.58361C16.4355 5.58841 16.4675 5.52601 16.4447 5.46721L16.1133 4.82641C16.1018 4.81081 16.0858 4.79641 16.0675 4.79401L16.0733 4.79281ZM5.82183 4.80481C5.75898 4.80241 5.69269 4.84081 5.71898 4.91881C5.70298 4.96081 5.83783 5.10241 5.86183 5.18041C5.88126 5.23681 5.83898 5.41441 5.88469 5.43241C5.92469 5.45041 5.98069 5.30761 6.00126 5.17681C6.01269 5.10481 6.00469 4.85761 5.84469 4.80721C5.83669 4.80481 5.82869 4.80481 5.81955 4.80361L5.82183 4.80481ZM17.5018 4.80481C17.487 4.80721 17.4698 4.82881 17.4447 4.88881C17.3818 4.99681 17.3601 5.18881 17.3853 5.35681C17.5338 6.42481 17.6481 7.45921 17.671 8.40481C17.6573 8.49601 17.6527 8.54401 17.6138 8.65681C17.5247 8.77681 17.4264 8.92561 17.3338 8.99761C17.2424 9.06961 17.0458 9.13921 16.9818 9.19201C16.7761 9.31441 16.7761 9.45601 16.9407 9.46201C17.2241 9.42601 17.5601 9.40201 17.791 9.03601C17.8527 8.93401 17.9258 8.65561 17.9281 8.48401C17.951 7.48801 17.9167 6.51001 17.7738 5.78881C17.7647 5.71681 17.735 5.55721 17.7464 5.53681C17.7635 5.48641 17.8561 5.54041 17.8893 5.48401C17.9384 5.43121 17.6493 5.04361 17.5487 4.87801C17.5281 4.83721 17.5144 4.80241 17.4984 4.80601L17.5018 4.80481ZM14.527 4.82161C14.5155 4.82401 14.4995 4.84321 14.4675 4.88761C14.3875 5.15881 14.3601 5.37961 14.391 5.55001C14.5967 6.66601 14.8024 7.68001 14.7704 8.74201C14.8664 8.74201 14.9784 8.51041 15.0264 8.28001C15.0527 7.96201 15.0081 7.76881 15.0013 7.58401C14.9933 7.39681 14.8001 5.88481 14.7613 5.74441C14.7133 5.47801 14.9487 5.70841 14.9235 5.55481C14.8413 5.35801 14.6378 5.07481 14.5761 4.90321C14.5533 4.85761 14.5487 4.81561 14.5304 4.81921L14.527 4.82161ZM7.28812 4.84321C7.26526 4.84801 7.23898 4.86961 7.23098 4.90321C7.22526 4.92721 7.24012 4.96681 7.21955 4.97881C7.20812 4.99081 7.16469 4.98241 7.16698 4.91881C7.16698 4.89721 7.15212 4.87561 7.14412 4.86241C7.13498 4.85761 7.12926 4.85641 7.11326 4.85641C7.09383 4.85641 7.09383 4.86241 7.08355 4.88041C7.07898 4.89721 7.07212 4.91401 7.07212 4.93321C7.06983 4.95721 7.06069 4.96321 7.04583 4.96681C7.02755 4.96681 7.03098 4.96921 7.01726 4.95841C7.00583 4.95001 6.99669 4.94641 6.99669 4.92961C6.99669 4.91161 6.99212 4.88161 6.98755 4.87201C6.97955 4.86001 6.96698 4.85521 6.95326 4.85161C6.87783 4.85161 6.87326 4.94521 6.87669 4.97881C6.87098 4.98601 6.86869 5.14681 6.97155 5.19241C7.10869 5.26201 7.36926 5.23201 7.36012 4.99801C7.36012 4.97761 7.35441 4.90801 7.35212 4.89001C7.33841 4.85401 7.31212 4.84201 7.28698 4.84561L7.28812 4.84321ZM9.14641 4.84561C9.09841 4.84801 9.05498 4.86241 9.02069 4.88161C8.92926 4.97401 8.90641 5.12161 8.97955 5.21401C9.04812 5.25001 9.12012 5.32201 9.07326 5.36401C8.87441 5.58601 8.35669 5.95921 8.33041 6.02761V6.03481H8.33498V6.03721C8.36126 6.05521 8.68583 6.05521 8.72126 6.03721H8.72355C8.83555 5.99281 9.36355 5.35921 9.36355 5.35921C9.33612 5.33521 9.31098 5.31601 9.28355 5.29081C9.25383 5.26441 9.25726 5.23801 9.28355 5.21161C9.41383 5.13241 9.37269 4.95601 9.30412 4.87561C9.24698 4.84921 9.19441 4.83961 9.14641 4.84321V4.84561ZM14.0035 4.84561C13.9898 4.84921 13.9727 4.86961 13.9464 4.92961C13.8835 5.03761 13.8413 5.22361 13.847 5.39761C13.9818 6.38161 14.023 7.24201 14.1121 8.22601C14.119 8.32201 14.1053 8.45881 14.0458 8.51401C13.8218 8.75881 13.5007 9.05881 13.151 9.19801C13.1133 9.24241 13.2447 9.43081 13.4138 9.43081C13.6973 9.39481 13.9464 9.22921 14.1795 8.78881C14.2401 8.68681 14.3487 8.46721 14.351 8.29681C14.3738 7.29841 14.3053 6.52081 14.1613 5.80081C14.1533 5.72881 14.159 5.64481 14.1704 5.62561C14.1887 5.60161 14.2504 5.62561 14.2847 5.56921C14.3327 5.51641 14.1544 5.08561 14.0538 4.92121C14.0333 4.87921 14.0218 4.84561 14.0035 4.84681V4.84561ZM6.47898 4.87801C6.44012 4.88281 6.40355 4.91401 6.38526 4.96201C6.37955 5.11801 6.37841 5.27401 6.39669 5.42041C6.46526 5.67601 6.48469 5.90041 6.51783 6.16081C6.52926 6.51121 6.32583 6.31201 6.33498 6.13921C6.38069 5.91361 6.36926 5.55961 6.32812 5.46961C6.29383 5.37961 6.25726 5.35801 6.17726 5.37361C6.11441 5.36881 5.95098 5.55361 5.90526 5.86561C5.90526 5.86561 5.86641 6.02401 5.85041 6.16561C5.82755 6.32521 5.72698 6.43921 5.65612 6.14401C5.59555 5.92801 5.55898 5.40001 5.45726 5.52241C5.42755 5.93521 5.39326 6.66241 5.72698 6.73681C6.13155 6.77761 5.90755 6.01921 6.05383 5.88121C6.08241 5.81521 6.13383 5.81401 6.13726 5.89921V6.54361C6.13269 6.75241 6.26298 6.81481 6.36583 6.85801C6.47212 6.84961 6.54183 6.85321 6.58298 6.96121L6.63441 8.07721C6.63441 8.07721 6.87898 8.14921 6.89041 7.44961C6.90183 7.03801 6.81041 6.69361 6.86412 6.61321C6.86641 6.53401 6.96241 6.52921 7.02869 6.56881C7.13498 6.64681 7.18183 6.74281 7.34641 6.70441C7.59783 6.63241 7.74641 6.50521 7.74983 6.30361C7.73841 6.11161 7.71555 5.91961 7.63555 5.72761C7.64698 5.69401 7.58983 5.60401 7.60126 5.56921C7.64469 5.64121 7.71326 5.63641 7.72698 5.56921C7.68583 5.42161 7.61955 5.28121 7.51212 5.22121C7.42412 5.13721 7.29498 5.15521 7.24698 5.32561C7.22412 5.52241 7.31555 5.75521 7.45269 5.94601C7.48012 6.02041 7.52126 6.14401 7.50298 6.25561C7.43098 6.29881 7.35898 6.27961 7.29726 6.21361C7.29726 6.21361 7.09955 6.05761 7.09955 6.02161C7.15326 5.66761 7.11098 5.62561 7.08241 5.52961C7.06183 5.39281 7.00012 5.34961 6.95098 5.25601C6.90069 5.19961 6.83326 5.19961 6.80241 5.25601C6.71326 5.41561 6.75441 5.76001 6.81841 5.91241C6.86412 6.05401 6.93498 6.14281 6.90183 6.14281C6.87441 6.22081 6.81726 6.20281 6.77612 6.11041C6.71898 5.91841 6.70526 5.63521 6.70526 5.50681C6.68812 5.34841 6.66869 5.00881 6.56812 4.92241C6.54183 4.88401 6.51098 4.87081 6.48012 4.87441L6.47898 4.87801ZM7.8984 4.87801C7.87898 4.88281 7.85612 4.89481 7.82983 4.90201C7.74412 4.92961 7.66412 5.00761 7.68926 5.15881C7.79212 5.80681 7.85726 6.30241 7.95898 6.95041C7.97383 7.02721 7.91326 7.12681 7.83555 7.11841C7.70298 7.02241 7.66983 6.83041 7.44355 6.84001C7.27898 6.84001 7.09155 7.02961 7.06869 7.20961C7.04126 7.35361 7.03212 7.50961 7.06869 7.63441C7.18298 7.77841 7.32241 7.76401 7.44355 7.73041C7.54298 7.68841 7.62641 7.58641 7.66069 7.61041C7.68355 7.65001 7.65841 7.98721 7.19212 8.24641C6.90412 8.38321 6.67555 8.41441 6.55212 8.16961C6.47669 8.01601 6.55898 7.43041 6.37155 7.56481C5.81612 9.06721 7.67098 9.27601 7.87783 7.62721C7.89155 7.57921 7.93155 7.53361 7.96126 7.54561C7.97269 7.55161 7.98412 7.56961 7.98869 7.60321C7.94526 9.09601 6.55326 9.19921 6.31783 8.72881C6.25841 8.61841 6.24126 8.37121 6.23555 8.22481C6.22412 8.13481 6.20355 8.08321 6.17841 8.06281C6.12126 8.01841 6.04583 8.13481 6.02983 8.33521C6.00698 8.49721 6.01269 8.54161 6.01269 8.69761C6.08812 9.87721 7.87898 9.36961 8.17041 8.39761C8.31441 7.89361 8.16698 7.51321 8.21612 7.46641L8.21955 7.46401H8.22298L8.22869 7.46161C8.40698 7.66321 8.65612 7.48561 8.71098 7.41721C8.73383 7.38121 8.79326 7.35721 8.83441 7.40521C8.97155 7.50841 9.21612 7.45921 9.2664 7.27321C9.29612 7.09321 9.32126 6.90841 9.32698 6.71521C9.23555 6.74521 9.16241 6.76681 9.13269 6.79921C9.12583 6.80761 9.12126 6.81721 9.11898 6.82681L9.09612 6.98641C9.09612 6.99241 9.09383 6.99601 9.09155 6.99841C9.08812 7.00681 9.08012 7.01281 9.07555 7.01641C9.04355 7.03441 8.98755 7.02481 8.98412 6.97561C8.94183 6.77161 8.76469 6.74521 8.65726 7.06321C8.58526 7.12321 8.45155 7.13521 8.44012 7.04401C8.45726 6.83041 8.37498 6.80161 8.21155 6.90241L8.05383 5.65441C8.12241 5.65081 8.18412 5.70241 8.24812 5.62081C8.17955 5.40001 8.03669 4.95121 7.95555 4.90801H7.95326L7.94183 4.89601C7.94183 4.89361 7.9384 4.89241 7.93612 4.89121L7.93155 4.88401C7.92698 4.88401 7.92241 4.88161 7.92012 4.88041C7.91212 4.87801 7.90526 4.87801 7.89726 4.87801H7.8984ZM13.4321 4.88281C13.3613 4.88041 13.2835 4.92721 13.3133 5.02081C13.295 5.07241 13.4653 5.24521 13.4927 5.33881C13.5418 5.48281 13.455 5.62321 13.5064 5.64361C13.5544 5.66521 13.6207 5.49361 13.6435 5.33401C13.6733 5.20441 13.5864 4.94041 13.4607 4.88641L13.4321 4.88401V4.88281ZM9.12012 5.04001C9.15212 5.03761 9.19098 5.06881 9.21155 5.11201C9.23098 5.16001 9.22069 5.20441 9.18869 5.21281C9.15441 5.22121 9.11098 5.19121 9.09041 5.14321C9.06983 5.09521 9.07898 5.05081 9.11326 5.04241H9.12012V5.04001ZM17.1167 5.25841C17.0515 5.25601 16.9795 5.30641 17.0093 5.40841C16.9933 5.46361 17.1464 5.65081 17.1727 5.75401C17.1955 5.82601 17.1384 6.06121 17.1841 6.08281C17.2275 6.10681 17.287 5.91961 17.3098 5.74681C17.3235 5.65081 17.2573 5.32081 17.1441 5.26201C17.1361 5.25961 17.127 5.25721 17.1178 5.25721L17.1167 5.25841ZM12.6938 5.37361C12.7018 5.40121 12.7075 5.42881 12.711 5.45761C12.7247 5.51761 12.7361 5.57761 12.7475 5.64001C12.6973 5.56561 12.6561 5.50561 12.6367 5.48401C12.5224 5.34001 12.639 5.39041 12.6938 5.37361V5.37361ZM13.7144 5.89921C13.6893 5.90401 13.6653 5.92681 13.6573 5.96281C13.6504 5.98441 13.6664 6.02281 13.6458 6.03481C13.6344 6.04681 13.5887 6.03961 13.5921 5.97481C13.5921 5.95321 13.5773 5.93041 13.5693 5.91841C13.5601 5.91241 13.5544 5.91001 13.5384 5.91001C13.519 5.91001 13.519 5.91601 13.5087 5.93401C13.5041 5.95081 13.4973 5.96761 13.4973 5.98801C13.4973 6.01201 13.4881 6.01921 13.4721 6.02401C13.4538 6.02401 13.4573 6.02401 13.4424 6.01561C13.4333 6.00361 13.423 6.00121 13.423 5.98441C13.423 5.96641 13.4195 5.93881 13.4138 5.92681C13.4058 5.91481 13.3944 5.91121 13.3795 5.90641C13.3053 5.90641 13.2995 5.99761 13.3041 6.03121C13.2995 6.03841 13.2961 6.20161 13.399 6.24721C13.5384 6.31561 13.799 6.28321 13.7875 6.05041C13.7875 6.03001 13.7818 5.96041 13.7807 5.94241C13.7658 5.90641 13.7395 5.89441 13.7155 5.89801L13.7144 5.89921ZM9.06298 5.94721C9.04698 5.94721 9.02412 5.95201 8.99783 5.96881C8.87555 6.03841 8.82869 6.24481 8.90641 6.36481C8.97498 6.47281 9.08926 6.43321 9.10412 6.43321C9.22412 6.45001 9.29498 6.19801 9.29498 6.19801C9.29498 6.19801 9.2984 6.12601 9.15783 6.26041C9.09612 6.27241 9.08926 6.24841 9.07326 6.21241C9.05955 6.14881 9.06183 6.08041 9.09041 6.01681C9.10412 5.97721 9.0904 5.95201 9.06298 5.94961V5.94721ZM15.6378 5.97961C15.5693 5.97601 15.4973 6.02281 15.4778 6.12001C15.4778 6.17761 15.503 6.20881 15.4984 6.26161C15.4927 6.29161 15.4641 6.30961 15.3933 6.27601C15.4047 6.26401 15.3475 6.18241 15.3475 6.18241C15.2938 6.14641 15.2218 6.18241 15.1738 6.21601C15.1475 6.26641 15.1281 6.35161 15.1578 6.43801C15.2355 6.59041 15.5041 6.84961 15.6321 6.85201C15.6344 6.71521 15.647 6.53281 15.655 6.42001C15.6573 6.37681 15.6664 6.33001 15.7064 6.31921C15.7453 6.30721 15.8127 6.36001 15.8127 6.31561C15.8058 6.22921 15.7898 6.09961 15.7441 6.03961C15.719 6.00361 15.679 5.98201 15.639 5.97961H15.6378ZM10.1944 6.45601L10.191 6.45961C10.191 6.45961 10.1887 6.45961 10.1875 6.46201C10.1738 6.47401 10.1578 6.49801 10.1224 6.52201C10.0618 6.59401 10.0515 6.64561 10.0538 6.78961C10.0584 6.80521 10.1681 7.12921 10.263 7.35601C10.327 7.59241 10.3853 7.86361 10.343 8.11921C10.1944 8.45761 9.89726 8.76121 9.60812 8.92681C9.45955 8.97481 9.33383 8.95801 9.29955 8.92441C9.21498 8.86441 9.21383 8.75641 9.21955 8.73961V8.73601C9.46183 8.55841 9.73955 8.41441 9.95669 7.93561C10.0207 7.75201 10.0413 7.64161 9.97726 7.35961C9.95212 7.25161 9.92012 7.16761 9.85155 7.09081H9.85383C9.89498 7.07041 10.0024 7.15321 10.0195 7.10281C9.99326 6.96601 9.90526 6.78481 9.80812 6.69121C9.72126 6.60721 9.62526 6.59881 9.54755 6.67441C9.45841 6.72721 9.44012 6.91441 9.48241 7.07761C9.53041 7.20001 9.65955 7.22161 9.75098 7.47001C9.75326 7.48681 9.78183 7.65601 9.73612 7.72561C9.69726 7.84801 9.21612 8.24641 9.18183 8.27041L9.17841 8.27281L9.17612 8.27521H9.17383H9.17155V8.27161C9.16926 8.26201 9.17155 8.23561 9.17155 8.19601C9.16812 8.12161 9.19783 7.95241 9.19441 7.92241V7.92001C9.03441 8.02801 8.98069 8.35801 8.95212 8.45641C8.54869 8.74801 8.09155 8.96521 7.82755 9.26041C7.69041 9.48841 8.77383 9.00361 8.89955 8.94481L8.90298 8.94841C8.92812 8.97601 8.92926 9.07201 9.00126 9.15961C9.11555 9.31921 9.35326 9.41761 9.5864 9.35641C9.97726 9.20881 10.2035 8.92921 10.4321 8.61841C10.4641 8.57041 10.5155 8.52961 10.5635 8.56801C10.7201 8.93761 11.175 9.20161 11.7613 9.22801C11.8984 9.05521 11.8333 8.97001 11.7784 8.93401C11.7613 8.92201 11.487 8.80921 11.4435 8.69761C11.4173 8.59441 11.4824 8.50201 11.6127 8.43361C11.9898 8.38561 12.3601 8.33161 12.719 8.21041C12.7224 8.08321 12.7933 7.89481 12.8413 7.81201C12.8755 7.75561 12.895 7.74961 12.903 7.74241V7.74001H12.9053V7.73641V7.72441L12.8435 7.68601L11.6401 7.68121C11.6253 7.67521 11.615 7.66921 11.6081 7.66321L11.6058 7.65961C11.6058 7.65961 11.6035 7.65961 11.6035 7.65721C11.6035 7.65481 11.6013 7.65481 11.6013 7.65481V7.65601V7.65361V7.65121V7.64881L11.6035 7.64521C11.6093 7.63801 11.6241 7.62961 11.6413 7.62121C11.9293 7.58161 12.439 7.49401 12.4733 6.97921C12.4675 6.71041 12.3635 6.53521 12.0504 6.48721C11.8195 6.50521 11.655 6.73921 11.6813 6.99601C11.6698 7.06441 11.7041 7.20001 11.6355 7.21561C11.1944 7.25881 10.7121 7.54921 10.6961 7.75801H10.6938H10.6915H10.6893C10.6893 7.76041 10.687 7.76041 10.6858 7.76041H10.6813H10.679H10.6744C10.6458 7.75081 10.6093 7.70041 10.615 7.63201C10.5978 7.27201 10.4858 6.86401 10.3121 6.55201C10.2493 6.48601 10.2207 6.45961 10.2047 6.45601H10.2013H10.1978H10.1955H10.1944ZM11.3464 6.64561C11.3235 6.65041 11.2973 6.67201 11.2893 6.70801C11.2835 6.73201 11.3007 6.77041 11.2801 6.78241C11.2687 6.79441 11.223 6.78721 11.2253 6.72241C11.2253 6.70201 11.2104 6.67921 11.2024 6.66601C11.1933 6.66001 11.1875 6.65881 11.1727 6.65881C11.1533 6.65881 11.1521 6.66361 11.1418 6.68041C11.1361 6.69721 11.1304 6.71641 11.1304 6.73441C11.1281 6.75841 11.119 6.76561 11.1041 6.76801C11.0858 6.76801 11.0904 6.77161 11.0755 6.76201C11.0664 6.75241 11.055 6.74761 11.055 6.73081C11.055 6.71281 11.0515 6.68281 11.047 6.67081C11.039 6.66241 11.0264 6.65881 11.0127 6.65401C10.9361 6.65401 10.9327 6.74401 10.9361 6.77881C10.9304 6.78481 10.927 6.94681 11.0298 6.99241C11.167 7.06201 11.4984 7.02121 11.4184 6.79681C11.4184 6.77641 11.4127 6.70681 11.4115 6.68881C11.3967 6.65281 11.3704 6.64081 11.3453 6.64441L11.3464 6.64561ZM15.9921 6.84601H15.9807C15.9807 6.84601 15.3384 7.32601 15.3235 7.34281C15.2595 7.40281 15.2915 7.61041 15.3235 7.58641C15.3693 7.60441 16.015 7.14481 16.0024 7.09081C16.031 7.09321 16.0447 6.85441 15.991 6.84481L15.9921 6.84601ZM11.9533 6.91801C11.9784 6.91441 12.0127 6.92401 12.0447 6.94201C12.0938 6.97321 12.1247 7.01641 12.119 7.05001V7.05481C12.1167 7.05481 12.1167 7.05481 12.1167 7.05721V7.05961C12.1167 7.05961 12.1144 7.05961 12.1144 7.06201C12.1144 7.06441 12.111 7.06681 12.1087 7.06921C12.0858 7.09321 12.0333 7.08841 11.983 7.05721C11.935 7.02961 11.9064 6.98521 11.9087 6.95401V6.95041L11.9144 6.93841C11.9144 6.93841 11.9144 6.93601 11.9167 6.93481L11.9224 6.92761C11.9304 6.92161 11.9407 6.91561 11.9533 6.91561V6.91801ZM6.33269 7.03801C6.00126 7.04521 5.51326 7.49641 5.50069 7.74601L6.55212 7.21801C6.49498 7.12681 6.54869 7.04521 6.33269 7.03801V7.03801ZM7.41041 7.19401C7.44241 7.19641 7.47669 7.21321 7.49498 7.26121C7.51098 7.30561 7.49498 7.35121 7.47555 7.37401V7.37761C7.45955 7.39681 7.41155 7.38961 7.37612 7.38961C7.33383 7.38721 7.31326 7.38001 7.28812 7.34401C7.27441 7.30201 7.31098 7.26241 7.32812 7.23361L7.33612 7.22161C7.34755 7.20961 7.37041 7.20001 7.39326 7.19761L7.40812 7.19521L7.41041 7.19401ZM15.8675 7.33441C15.807 7.34161 15.751 7.40041 15.7761 7.49401C15.7601 7.54921 15.8561 7.74241 15.8824 7.84441C15.9053 7.91641 15.8527 8.12401 15.8995 8.14441C15.943 8.16841 16.0561 8.02441 16.0527 7.83961C16.0641 7.74361 16.0207 7.39561 15.9075 7.33801C15.8938 7.33441 15.8801 7.33321 15.8664 7.33441H15.8675ZM8.68583 7.67521C8.63326 7.67881 8.58641 7.70761 8.60812 7.78561C8.60469 7.84081 8.75669 7.90921 8.76469 8.03761C8.78526 8.09281 8.73041 8.26561 8.77612 8.28001C8.81726 8.29801 8.87441 8.16001 8.89612 8.03521C8.90755 7.96561 8.84355 7.72321 8.73612 7.67881C8.71898 7.67401 8.70183 7.67281 8.68469 7.67401L8.68583 7.67521ZM10.8344 7.98241H10.8481C10.983 8.02081 11.1795 8.02561 11.351 8.04241C11.4915 8.05441 11.5601 8.16721 11.431 8.21641C11.3007 8.26201 11.1761 8.30041 11.1761 8.49481C11.1921 8.59081 11.1875 8.64121 11.1738 8.66281C11.1738 8.66641 11.1704 8.66881 11.1693 8.67001C11.1693 8.67001 11.1693 8.67241 11.167 8.67241V8.67481H11.1635L11.1555 8.67841H11.1498C11.119 8.68441 11.0744 8.65441 11.0413 8.63521C10.9613 8.57521 10.7384 8.43121 10.7064 8.11921C10.7018 8.04721 10.7521 7.98721 10.8321 7.98121L10.8344 7.98241ZM5.58412 8.22241C5.57612 8.22241 5.56126 8.24881 5.53841 8.27881C5.33955 8.60881 5.32126 9.10201 5.43098 9.25081C5.48812 9.31921 5.58412 9.35041 5.65498 9.32881C5.78069 9.27241 5.83441 9.00721 5.80355 8.91121C5.76355 8.84281 5.73041 8.83201 5.68926 8.88961C5.60126 9.07561 5.56355 8.94721 5.55783 8.84161C5.54412 8.64601 5.56241 8.46361 5.58298 8.31961C5.59441 8.24761 5.59441 8.22001 5.58298 8.22001L5.58412 8.22241ZM12.3235 8.65681C12.3087 8.65681 12.2938 8.65921 12.2778 8.66881C12.2744 8.66881 12.1361 8.76481 12.0915 8.83441C12.0641 8.85601 12.0687 8.87401 12.0755 8.91241C12.0961 8.96401 12.1327 8.94841 12.1761 8.92441C12.2333 8.91481 12.2595 8.95441 12.2561 9.02521C12.2298 9.11521 12.2675 9.14761 12.2675 9.15361C12.2675 9.15841 12.3213 9.20761 12.3853 9.16921C12.519 9.11521 12.6024 9.06121 12.791 9.01921C12.8401 9.01921 12.8367 8.88001 12.759 8.87521C12.6561 8.88001 12.5647 8.88721 12.4618 8.97121C12.399 8.98561 12.3887 8.94481 12.3738 8.90881C12.3578 8.82001 12.4104 8.75761 12.399 8.69041C12.4013 8.69401 12.367 8.66161 12.3224 8.65921L12.3235 8.65681ZM16.639 8.82481L16.5475 8.83441C16.5064 8.84281 16.4927 8.86201 16.4847 8.91481C16.4881 8.99281 16.5338 8.98921 16.5818 9.02041C16.6093 9.05641 16.6275 9.09001 16.5795 9.15241C16.5338 9.19441 16.503 9.21841 16.4573 9.26041C16.4378 9.29881 16.423 9.35641 16.4893 9.37561C16.6093 9.41161 16.887 9.22201 16.887 9.21961C16.9327 9.18361 16.9167 9.11521 16.9133 9.11521C16.8858 9.08401 16.8264 9.10321 16.7875 9.09721C16.7681 9.09721 16.7075 9.08761 16.735 9.03001C16.7601 8.99401 16.7693 8.97361 16.7864 8.92921C16.8035 8.88601 16.7864 8.85721 16.7201 8.83321C16.6858 8.82601 16.663 8.82361 16.6367 8.82481H16.639ZM14.9784 13.4568C15.287 13.4724 15.575 13.4604 15.8813 13.476C15.9315 13.5192 15.9075 13.62 15.8755 13.6368L15.8698 13.6392H15.8664H15.8618L15.6035 13.632V13.6164C15.5784 13.542 15.407 13.5468 15.3658 13.6044V13.608C15.3635 13.608 15.3624 13.6116 15.3624 13.6128L15.3601 13.6188V13.6332C15.223 13.6512 15.103 13.6284 14.9681 13.6236C14.9281 13.572 14.9338 13.4796 14.9795 13.4556L14.9784 13.4568Z" fill="white"/>
</svg>
