<svg width="24" height="18" viewBox="0 0 24 18" fill="none" xmlns="http://www.w3.org/2000/svg">
<g clip-path="url(#clip0_1_3841)">
<rect width="24" height="18" rx="4" fill="#F93939"/>
<path d="M21.7143 0H2.28571C1.02335 0 0 1.07452 0 2.4V15.6C0 16.9255 1.02335 18 2.28571 18H21.7143C22.9767 18 24 16.9255 24 15.6V2.4C24 1.07452 22.9767 0 21.7143 0Z" fill="#F93939"/>
<path fill-rule="evenodd" clip-rule="evenodd" d="M0 4.8H24V13.2H0V4.8Z" fill="#FFDA2C"/>
<path fill-rule="evenodd" clip-rule="evenodd" d="M10.2857 7.4664V10.4904C10.2857 11.3304 9.51771 12.0024 8.57143 12.0024H6.28571C5.34171 12 4.57143 11.3244 4.57143 10.488V7.464C4.57143 6.7776 5.08343 6.204 5.78743 6.018C6 5.394 6.65371 5.9532 7.42857 5.9532C8.208 5.9532 8.85714 5.3976 9.06971 6.0192C9.77143 6.21 10.2857 6.7848 10.2857 7.4664Z" fill="#D4AF2C"/>
<path fill-rule="evenodd" clip-rule="evenodd" d="M10.2857 8.4H11.4286V12H10.2857V8.4ZM3.42857 8.4H4.57143V12H3.42857V8.4Z" fill="#CBCBCB"/>
<path fill-rule="evenodd" clip-rule="evenodd" d="M10.2857 10.8H11.4286V12H10.2857V10.8ZM3.42857 10.8H4.57143V12H3.42857V10.8Z" fill="#1A47B8"/>
<path fill-rule="evenodd" clip-rule="evenodd" d="M10.2857 7.2H11.4286V8.4H10.2857V7.2ZM3.42857 7.2H4.57143V8.4H3.42857V7.2Z" fill="#D4AF2C"/>
<path fill-rule="evenodd" clip-rule="evenodd" d="M5.71429 7.2H6.85714V9H5.71429V7.2ZM8 9.6H9.14286V11.4H8V9.6Z" fill="#AF010D"/>
<path fill-rule="evenodd" clip-rule="evenodd" d="M5.71429 9.6H6.85714V11.4H5.71429V9.6Z" fill="#FFDA2C"/>
<path fill-rule="evenodd" clip-rule="evenodd" d="M8 7.2H9.14286V9H8V7.2Z" fill="#AE6A3E"/>
<path fill-rule="evenodd" clip-rule="evenodd" d="M6.85714 7.2L5.71429 6H9.14286L8 7.2H6.85714Z" fill="#AF010D"/>
<path fill-rule="evenodd" clip-rule="evenodd" d="M6.85714 4.8H8V6H6.85714V4.8Z" fill="#D4AF2C"/>
</g>
<defs>
<clipPath id="clip0_1_3841">
<rect width="24" height="18" rx="4" fill="white"/>
</clipPath>
</defs>
</svg>
