<svg width="24" height="18" viewBox="0 0 24 18" fill="none" xmlns="http://www.w3.org/2000/svg">
<rect width="24" height="18" rx="4" fill="#F93939"/>
<path fill-rule="evenodd" clip-rule="evenodd" d="M16.0023 10.3824L14.6743 11.1144L14.928 9.56278L13.8537 8.46238L15.3394 8.23438L16.0023 6.82318L16.6651 8.23558L18.1508 8.46358L17.0766 9.56158L17.3303 11.1132" fill="white"/>
<path fill-rule="evenodd" clip-rule="evenodd" d="M10.8571 13.2C13.0663 13.2 14.8571 11.3196 14.8571 8.99999C14.8571 6.68039 13.0663 4.79999 10.8571 4.79999C8.64797 4.79999 6.85712 6.68039 6.85712 8.99999C6.85712 11.3196 8.64797 13.2 10.8571 13.2ZM12 12C13.5771 12 14.8571 10.656 14.8571 8.99999C14.8571 7.34399 13.5771 5.99999 12 5.99999C10.4228 5.99999 9.14283 7.34399 9.14283 8.99999C9.14283 10.656 10.4228 12 12 12Z" fill="white"/>
</svg>
