<svg width="24" height="18" viewBox="0 0 24 18" fill="none" xmlns="http://www.w3.org/2000/svg">
<g clip-path="url(#clip0_206_1367)">
<rect width="24" height="18" rx="4" fill="white"/>
<path fill-rule="evenodd" clip-rule="evenodd" d="M0 0H10.2857V8.4H0V0Z" fill="#1A47B8"/>
<path fill-rule="evenodd" clip-rule="evenodd" d="M10.2857 0V1.2H24V0H10.2857ZM10.2857 2.4V3.6H24V2.4H10.2857ZM10.2857 4.8V6H24V4.8H10.2857ZM10.2857 7.2V8.4H24V7.2H10.2857ZM0 9.6V10.8H24V9.6H0ZM0 12V13.2H24V12H0ZM0 14.4V15.6H24V14.4H0ZM0 16.8V18H24V16.8H0Z" fill="#F93939"/>
<path fill-rule="evenodd" clip-rule="evenodd" d="M1.14282 1.20001V2.40001H2.28568V1.20001H1.14282ZM3.42854 1.20001V2.40001H4.57139V1.20001H3.42854ZM5.71425 1.20001V2.40001H6.85711V1.20001H5.71425ZM7.99997 1.20001V2.40001H9.14282V1.20001H7.99997ZM6.85711 2.40001V3.60001H7.99997V2.40001H6.85711ZM4.57139 2.40001V3.60001H5.71425V2.40001H4.57139ZM2.28568 2.40001V3.60001H3.42854V2.40001H2.28568ZM1.14282 3.60001V4.80001H2.28568V3.60001H1.14282ZM3.42854 3.60001V4.80001H4.57139V3.60001H3.42854ZM5.71425 3.60001V4.80001H6.85711V3.60001H5.71425ZM7.99997 3.60001V4.80001H9.14282V3.60001H7.99997ZM1.14282 6.00001V7.20001H2.28568V6.00001H1.14282ZM3.42854 6.00001V7.20001H4.57139V6.00001H3.42854ZM5.71425 6.00001V7.20001H6.85711V6.00001H5.71425ZM7.99997 6.00001V7.20001H9.14282V6.00001H7.99997ZM6.85711 4.80001V6.00001H7.99997V4.80001H6.85711ZM4.57139 4.80001V6.00001H5.71425V4.80001H4.57139ZM2.28568 4.80001V6.00001H3.42854V4.80001H2.28568Z" fill="white"/>
</g>
<defs>
<clipPath id="clip0_206_1367">
<rect width="24" height="18" rx="4" fill="white"/>
</clipPath>
</defs>
</svg>
