<svg width="18" height="18" viewBox="0 0 18 18" fill="none" xmlns="http://www.w3.org/2000/svg">
<path d="M0.666992 1.50002C0.666992 1.03978 1.04009 0.666687 1.50033 0.666687H8.16699C8.38801 0.666687 8.59997 0.754484 8.75625 0.910765L17.0896 9.2441C17.415 9.56954 17.415 10.0972 17.0896 10.4226L10.4229 17.0893C10.0975 17.4147 9.56984 17.4147 9.2444 17.0893L0.91107 8.75594C0.75479 8.59966 0.666992 8.3877 0.666992 8.16669V1.50002ZM2.33366 2.33335V7.82151L9.83366 15.3215L15.3218 9.83335L7.82182 2.33335H2.33366Z" fill="#2D2D2D"/>
<path d="M6.50033 5.25002C6.50033 5.94038 5.94068 6.50002 5.25033 6.50002C4.55997 6.50002 4.00033 5.94038 4.00033 5.25002C4.00033 4.55966 4.55997 4.00002 5.25033 4.00002C5.94068 4.00002 6.50033 4.55966 6.50033 5.25002Z" fill="#2D2D2D"/>
</svg>
